<svg width="46" height="46" viewBox="0 0 46 46" fill="none" xmlns="http://www.w3.org/2000/svg">
<path d="M13.9863 21.3255V18.3161C13.9863 18.138 13.9863 18.0668 14.2188 18.0668C16.212 18.0668 17.832 17.9486 18.6363 18.423C19.4426 18.8955 19.4763 19.548 19.4895 19.743C19.5045 19.938 19.497 20.2174 19.122 20.898C18.747 21.5786 17.0688 21.5918 15.8576 21.5918H14.2545C14.0576 21.5918 13.9863 21.5205 13.9863 21.3255ZM19.5101 24.4793C19.6955 24.7164 19.8278 24.9907 19.898 25.2834C19.9683 25.5761 19.9748 25.8805 19.9172 26.176C19.8596 26.4714 19.7392 26.7511 19.5641 26.996C19.3891 27.2409 19.1635 27.4454 18.9026 27.5955C18.5188 27.7565 18.1074 27.8412 17.6913 27.8449H14.2357C14.0576 27.8449 13.9863 27.8449 13.9863 27.6143V24.0518C13.9863 23.8736 13.9863 23.8024 14.2188 23.8024H16.5157C17.9407 23.8024 18.8313 23.6786 19.5101 24.4793Z" fill="white"/>
<path d="M32.0516 22.8294C31.9562 22.604 31.8113 22.4031 31.6275 22.2414C31.4438 22.0798 31.226 21.9616 30.9904 21.8956C30.5194 21.7672 30.0266 21.7401 29.5444 21.816C29.0622 21.892 28.6016 22.0693 28.1929 22.3362C27.7853 22.7473 27.5221 23.2796 27.4429 23.8531C27.4429 24.0537 27.4429 24.0912 27.681 24.0912H32.1248C32.3441 24.0912 32.3441 24.0913 32.3254 23.8156C32.304 23.4711 32.2119 23.135 32.0516 22.8294ZM32.0516 22.8294C31.9562 22.604 31.8094 22.4031 31.6257 22.2414C31.4419 22.0798 31.226 21.9616 30.9904 21.8956C30.5194 21.7672 30.0247 21.7401 29.5425 21.816C29.0603 21.892 28.6016 22.0693 28.1929 22.3362C27.7853 22.7473 27.5202 23.2796 27.441 23.8531C27.441 24.0537 27.441 24.0912 27.6791 24.0912H32.1248C32.3441 24.0912 32.3441 24.0913 32.3254 23.8156C32.304 23.4711 32.2082 23.135 32.0479 22.8294M34.1348 5.1875H12.1973C10.2579 5.1875 8.39791 5.95792 7.02655 7.32928C5.65519 8.70064 4.88477 10.5606 4.88477 12.5V34.4375C4.88477 36.3769 5.65519 38.2369 7.02655 39.6082C8.39791 40.9796 10.2579 41.75 12.1973 41.75H34.1348C36.0742 41.75 37.9341 40.9796 39.3055 39.6082C40.6768 38.2369 41.4473 36.3769 41.4473 34.4375V12.5C41.4473 10.5606 40.6768 8.70064 39.3055 7.32928C37.9341 5.95792 36.0742 5.1875 34.1348 5.1875ZM26.9685 16.8313C26.9685 16.6869 26.9685 16.6306 27.1335 16.6306H33.0566V18.1681C33.0566 18.1681 33.0623 18.2769 32.9648 18.2769H27.2254C26.9685 18.2769 26.9685 18.2769 26.9685 18.0219V16.8313ZM21.4841 30.2694C19.2341 31.4937 15.4523 31.0006 10.9729 31.0006V15.845H18.1204C19.9485 15.845 22.1235 16.3025 22.7085 18.2394C23.0123 19.0853 22.9938 20.0136 22.6566 20.8467C22.3194 21.6799 21.687 22.3597 20.8804 22.7562C21.6239 23.0314 22.2731 23.5138 22.751 24.1464C23.2289 24.7789 23.5156 25.5352 23.5772 26.3256C23.6387 27.116 23.4725 27.9075 23.0983 28.6065C22.724 29.3054 22.1574 29.8824 21.4654 30.2694H21.4841ZM35.1041 25.955H27.7916C27.591 25.955 27.4073 26.0637 27.4429 26.3206C27.6623 27.3987 28.1554 28.5331 29.2729 28.6981C29.863 28.8727 30.4945 28.8452 31.0672 28.62C31.6399 28.3948 32.121 27.9848 32.4341 27.455C32.4341 27.455 32.526 27.3444 32.5804 27.3444H34.9579C34.9579 27.3444 35.1041 27.3444 35.0666 27.4719C34.8176 28.1826 34.4464 28.8444 33.9698 29.4275C33.3342 30.0341 32.5674 30.4861 31.7289 30.7486C30.8904 31.011 30.0027 31.0768 29.1347 30.9408C28.2667 30.8048 27.4417 30.4707 26.7236 29.9644C26.0055 29.4581 25.4138 28.7932 24.9941 28.0213C24.7348 27.5069 24.5739 26.9485 24.5198 26.375C24.1937 24.9342 24.4429 23.4231 25.2144 22.1634C25.986 20.9036 27.2188 19.9949 28.6504 19.6306C32.7998 18.7344 35.4323 21.5862 35.4323 25.6081C35.4384 25.6551 35.4337 25.7029 35.4184 25.7478C35.4032 25.7927 35.3778 25.8335 35.3443 25.867C35.3107 25.9005 35.27 25.9259 35.2251 25.9411C35.1802 25.9564 35.1324 25.9611 35.0854 25.955H35.1041ZM31.0091 21.8956C30.5382 21.7676 30.0455 21.7408 29.5635 21.8169C29.0816 21.8919 28.6504 21.9837 28.2116 22.3362C27.7729 22.6869 27.5404 23.2794 27.4616 23.8531C27.4616 24.0537 27.4616 24.0912 27.6998 24.0912H32.1248C32.3441 24.0912 32.3441 24.0913 32.3254 23.8156C32.304 23.4711 32.2119 23.135 32.0516 22.8294C31.9562 22.604 31.8113 22.4031 31.6275 22.2414C31.4438 22.0798 31.226 21.9616 30.9904 21.8956H31.0091Z" fill="white"/>
</svg>
