<svg width="46" height="46" viewBox="0 0 46 46" fill="none" xmlns="http://www.w3.org/2000/svg">
<g clip-path="url(#clip0_600_104)">
<path d="M35.1953 0.5H11.2891C5.46418 0.5 0.742188 5.222 0.742188 11.0469V34.9531C0.742188 40.778 5.46418 45.5 11.2891 45.5H35.1953C41.0202 45.5 45.7422 40.778 45.7422 34.9531V11.0469C45.7422 5.222 41.0202 0.5 35.1953 0.5Z" fill="url(#paint0_radial_600_104)"/>
<path d="M35.1953 0.5H11.2891C5.46418 0.5 0.742188 5.222 0.742188 11.0469V34.9531C0.742188 40.778 5.46418 45.5 11.2891 45.5H35.1953C41.0202 45.5 45.7422 40.778 45.7422 34.9531V11.0469C45.7422 5.222 41.0202 0.5 35.1953 0.5Z" fill="url(#paint1_radial_600_104)"/>
<path d="M23.2438 5.42188C18.4699 5.42188 17.8707 5.44279 15.9958 5.52805C14.1244 5.61383 12.847 5.91002 11.7294 6.34473C10.5731 6.79367 9.59242 7.39432 8.61543 8.37166C7.63756 9.34883 7.03691 10.3295 6.58656 11.4853C6.15063 12.6032 5.85408 13.8812 5.76988 15.7517C5.68604 17.6267 5.66406 18.2261 5.66406 23.0002C5.66406 27.7742 5.68516 28.3715 5.77023 30.2464C5.85637 32.1178 6.15256 33.3952 6.58691 34.5128C7.03621 35.6691 7.63686 36.6498 8.6142 37.6268C9.59102 38.6046 10.5717 39.2067 11.7271 39.6556C12.8456 40.0903 14.1232 40.3865 15.9942 40.4723C17.8693 40.5576 18.468 40.5785 23.2417 40.5785C28.0161 40.5785 28.6134 40.5576 30.4882 40.4723C32.3596 40.3865 33.6384 40.0903 34.7569 39.6556C35.9127 39.2067 36.892 38.6046 37.8686 37.6268C38.8465 36.6498 39.4469 35.6691 39.8975 34.5133C40.3295 33.3952 40.6262 32.1174 40.7141 30.2468C40.7983 28.3719 40.8203 27.7742 40.8203 23.0002C40.8203 18.2261 40.7983 17.6271 40.7141 15.752C40.6262 13.8806 40.3295 12.6034 39.8975 11.4858C39.4469 10.3295 38.8465 9.34883 37.8686 8.37166C36.8909 7.39396 35.913 6.79332 34.7559 6.3449C33.6353 5.91002 32.3571 5.61365 30.4858 5.52805C28.6107 5.44279 28.0138 5.42188 23.2383 5.42188H23.2438ZM21.6668 8.58963C22.1349 8.58893 22.6572 8.58963 23.2438 8.58963C27.9373 8.58963 28.4935 8.6065 30.3469 8.6907C32.0608 8.7691 32.991 9.05545 33.6106 9.29609C34.431 9.61461 35.0158 9.99553 35.6307 10.6109C36.246 11.2262 36.6267 11.8121 36.9461 12.6324C37.1867 13.2512 37.4734 14.1814 37.5515 15.8953C37.6357 17.7484 37.654 18.3049 37.654 22.9961C37.654 27.6874 37.6357 28.2441 37.5515 30.097C37.4731 31.8109 37.1867 32.7411 36.9461 33.36C36.6276 34.1804 36.246 34.7645 35.6307 35.3794C35.0155 35.9946 34.4314 36.3754 33.6106 36.6941C32.9917 36.9358 32.0608 37.2214 30.3469 37.2998C28.4938 37.384 27.9373 37.4023 23.2438 37.4023C18.5501 37.4023 17.9937 37.384 16.1408 37.2998C14.4269 37.2207 13.4967 36.9344 12.8765 36.6937C12.0563 36.375 11.4703 35.9943 10.8551 35.379C10.2398 34.7638 9.85908 34.1793 9.53969 33.3586C9.29904 32.7397 9.01234 31.8095 8.9343 30.0956C8.8501 28.2425 8.83322 27.686 8.83322 22.9917C8.83322 18.2977 8.8501 17.744 8.9343 15.8909C9.0127 14.177 9.29904 13.2468 9.53969 12.6271C9.85838 11.8068 10.2398 11.2209 10.8552 10.6057C11.4705 9.99043 12.0563 9.60951 12.8767 9.29029C13.4963 9.04859 14.4269 8.76295 16.1408 8.6842C17.7624 8.6109 18.3908 8.58893 21.6668 8.58523V8.58963ZM32.627 11.5083C31.4624 11.5083 30.5176 12.4522 30.5176 13.617C30.5176 14.7815 31.4624 15.7263 32.627 15.7263C33.7915 15.7263 34.7363 14.7815 34.7363 13.617C34.7363 12.4524 33.7915 11.5076 32.627 11.5076V11.5083ZM23.2438 13.9729C18.2586 13.9729 14.2167 18.0148 14.2167 23.0002C14.2167 27.9855 18.2586 32.0255 23.2438 32.0255C28.2291 32.0255 32.2696 27.9855 32.2696 23.0002C32.2696 18.015 28.2288 13.9729 23.2434 13.9729H23.2438ZM23.2438 17.1407C26.4797 17.1407 29.1033 19.7639 29.1033 23.0002C29.1033 26.2361 26.4797 28.8597 23.2438 28.8597C20.0076 28.8597 17.3845 26.2361 17.3845 23.0002C17.3845 19.7639 20.0076 17.1407 23.2438 17.1407Z" fill="white"/>
</g>
<defs>
<radialGradient id="paint0_radial_600_104" cx="0" cy="0" r="1" gradientUnits="userSpaceOnUse" gradientTransform="translate(12.6953 48.9659) rotate(-90) scale(44.5983 41.48)">
<stop stop-color="#FFDD55"/>
<stop offset="0.1" stop-color="#FFDD55"/>
<stop offset="0.5" stop-color="#FF543E"/>
<stop offset="1" stop-color="#C837AB"/>
</radialGradient>
<radialGradient id="paint1_radial_600_104" cx="0" cy="0" r="1" gradientUnits="userSpaceOnUse" gradientTransform="translate(-6.79549 3.74158) rotate(78.681) scale(19.9357 82.1756)">
<stop stop-color="#3771C8"/>
<stop offset="0.128" stop-color="#3771C8"/>
<stop offset="1" stop-color="#6600FF" stop-opacity="0"/>
</radialGradient>
<clipPath id="clip0_600_104">
<rect width="45" height="45" fill="white" transform="translate(0.742188 0.5)"/>
</clipPath>
</defs>
</svg>
