<svg width="45" height="45" viewBox="0 0 45 45" fill="none" xmlns="http://www.w3.org/2000/svg">
<g clip-path="url(#clip0_600_95)">
<path d="M22.5 0C16.534 0 10.807 2.37199 6.5918 6.59004C2.37225 10.8098 0.00120744 16.5325 0 22.5C0 28.465 2.37305 34.1919 6.5918 38.41C10.807 42.628 16.534 45 22.5 45C28.466 45 34.193 42.628 38.4082 38.41C42.627 34.1919 45 28.465 45 22.5C45 16.535 42.627 10.8081 38.4082 6.59004C34.193 2.37199 28.466 0 22.5 0Z" fill="url(#paint0_linear_600_95)"/>
<path d="M10.1853 22.2626C16.7455 19.4051 21.1189 17.5212 23.3056 16.6109C29.5564 14.0118 30.8537 13.5603 31.7009 13.5451C31.8873 13.5421 32.3021 13.5881 32.5728 13.807C32.7978 13.9915 32.8611 14.2411 32.8927 14.4164C32.9209 14.5915 32.9595 14.9905 32.9279 15.302C32.5904 18.8598 31.1244 27.4935 30.3791 31.4784C30.0662 33.1645 29.4439 33.7298 28.8427 33.785C27.5349 33.9053 26.5435 32.9216 25.2779 32.0923C23.2986 30.7939 22.1806 29.9861 20.2576 28.7194C18.0357 27.2555 19.4771 26.4507 20.7427 25.1359C21.0732 24.7917 26.8318 19.5552 26.9408 19.0802C26.9548 19.0208 26.9689 18.7993 26.8353 18.6826C26.7052 18.5655 26.5119 18.6056 26.3713 18.6373C26.1709 18.6823 23.0103 20.7734 16.8791 24.9102C15.9826 25.5268 15.1705 25.8274 14.4392 25.8116C13.6377 25.7944 12.0908 25.3574 10.9412 24.984C9.53493 24.5259 8.41344 24.2837 8.51188 23.5057C8.5611 23.1007 9.12008 22.6862 10.1853 22.2626Z" fill="white"/>
</g>
<defs>
<linearGradient id="paint0_linear_600_95" x1="2250" y1="0" x2="2250" y2="4500" gradientUnits="userSpaceOnUse">
<stop stop-color="#2AABEE"/>
<stop offset="1" stop-color="#229ED9"/>
</linearGradient>
<clipPath id="clip0_600_95">
<rect width="45" height="45" fill="white"/>
</clipPath>
</defs>
</svg>
