<svg width="46" height="46" viewBox="0 0 46 46" fill="none" xmlns="http://www.w3.org/2000/svg">
<path d="M23.2129 4.25C19.5045 4.25 15.8794 5.34967 12.796 7.40994C9.71254 9.47022 7.3093 12.3986 5.89016 15.8247C4.47101 19.2508 4.0997 23.0208 4.82318 26.6579C5.54665 30.2951 7.33241 33.636 9.95465 36.2583C12.5769 38.8805 15.9178 40.6663 19.555 41.3897C23.1921 42.1132 26.9621 41.7419 30.3882 40.3227C33.8143 38.9036 36.7427 36.5004 38.803 33.4169C40.8632 30.3335 41.9629 26.7084 41.9629 23C41.9579 18.0287 39.9809 13.2625 36.4657 9.74723C32.9504 6.232 28.1842 4.25496 23.2129 4.25ZM34.3485 18.7119V19.9231C34.3486 20.0158 34.33 20.1076 34.294 20.193C34.258 20.2784 34.2052 20.3558 34.1387 20.4204C34.0723 20.4851 33.9936 20.5358 33.9073 20.5695C33.8209 20.6033 33.7287 20.6194 33.636 20.6169C31.6564 20.4766 29.7626 19.7537 28.1929 18.5394V27.4044C28.1927 28.3855 27.9969 29.3568 27.617 30.2615C27.2371 31.1661 26.6808 31.986 25.9804 32.6731C25.2738 33.3774 24.4341 33.9341 23.5102 34.3108C22.5864 34.6874 21.5968 34.8764 20.5991 34.8669C18.5928 34.8634 16.6671 34.0762 15.2329 32.6731C14.3205 31.7533 13.6633 30.6117 13.326 29.3608C12.9887 28.1098 12.9829 26.7926 13.3091 25.5388C13.6073 24.335 14.2091 23.2287 15.0585 22.3269C15.692 21.5527 16.4904 20.9298 17.3955 20.5039C18.3006 20.0779 19.2895 19.8596 20.2898 19.865H21.8273V23.0581C21.828 23.1509 21.8089 23.2427 21.7713 23.3275C21.7337 23.4122 21.6784 23.488 21.6092 23.5498C21.54 23.6115 21.4585 23.6578 21.37 23.6855C21.2815 23.7133 21.1881 23.7218 21.096 23.7106C20.2033 23.4425 19.2414 23.5314 18.413 23.9587C17.5846 24.386 16.9544 25.1182 16.6554 26.001C16.3563 26.8839 16.4117 27.8483 16.8099 28.6911C17.208 29.5339 17.9179 30.1891 18.7898 30.5188C19.296 30.8094 19.8623 30.98 20.4435 31.0194C20.8935 31.0381 21.3435 30.9819 21.771 30.8469C22.485 30.6066 23.1061 30.1493 23.5475 29.5388C23.9888 28.9283 24.2285 28.1952 24.2329 27.4419V11.2888C24.2327 11.2002 24.2499 11.1125 24.2836 11.0306C24.3173 10.9487 24.3669 10.8743 24.4294 10.8116C24.4919 10.7489 24.5662 10.6991 24.648 10.6652C24.7298 10.6312 24.8175 10.6137 24.906 10.6138H27.5591C27.7317 10.6135 27.8977 10.6795 28.023 10.7981C28.1482 10.9168 28.2231 11.079 28.2323 11.2513C28.3293 12.0785 28.5922 12.8776 29.0052 13.6009C29.4182 14.3242 29.9729 14.9567 30.636 15.4606C31.5325 16.1335 32.5971 16.5462 33.7129 16.6531C33.88 16.6674 34.0363 16.7418 34.1528 16.8624C34.2693 16.9831 34.3382 17.1419 34.3466 17.3094L34.3485 18.7119Z" fill="white"/>
</svg>
