<svg width="46" height="32" viewBox="0 0 46 32" fill="none" xmlns="http://www.w3.org/2000/svg">
<g clip-path="url(#clip0_600_112)">
<path d="M44.2327 5.11475C43.9746 4.16088 43.4711 3.29127 42.7724 2.59251C42.0737 1.89375 41.2041 1.39022 40.2502 1.13207C36.7582 0.179688 22.7037 0.179688 22.7037 0.179688C22.7037 0.179688 8.64863 0.208516 5.15656 1.1609C4.20268 1.41907 3.33308 1.92262 2.63435 2.62141C1.93562 3.3202 1.43214 4.18985 1.17406 5.14375C0.117788 11.3485 -0.291958 20.803 1.20306 26.7596C1.46117 27.7134 1.96466 28.583 2.66339 29.2818C3.36212 29.9806 4.23171 30.4841 5.18556 30.7422C8.67763 31.6946 22.7324 31.6946 22.7324 31.6946C22.7324 31.6946 36.787 31.6946 40.2789 30.7422C41.2328 30.4841 42.1024 29.9806 42.8012 29.2818C43.4999 28.5831 44.0034 27.7135 44.2616 26.7596C45.3757 20.5461 45.719 11.0973 44.2327 5.11475Z" fill="#FF0000"/>
<path d="M18.2305 22.6904L29.8897 15.9372L18.2305 9.18408V22.6904Z" fill="white"/>
</g>
<defs>
<clipPath id="clip0_600_112">
<rect width="45" height="31.6406" fill="white" transform="translate(0.226562 0.179688)"/>
</clipPath>
</defs>
</svg>
