<svg width="51" height="51" viewBox="0 0 51 51" fill="none" xmlns="http://www.w3.org/2000/svg">
<path d="M12.6953 22.5105V18.3128C12.6953 18.0644 12.6953 17.965 13.0196 17.965C15.7998 17.965 18.0595 17.8002 19.1815 18.4619C20.3061 19.121 20.3532 20.0311 20.3715 20.3031C20.3924 20.5751 20.3819 20.9648 19.8589 21.9142C19.3358 22.8636 16.995 22.8819 15.3055 22.8819H13.0693C12.7947 22.8819 12.6953 22.7825 12.6953 22.5105ZM20.4002 26.9096C20.6589 27.2404 20.8434 27.6229 20.9414 28.0312C21.0393 28.4395 21.0485 28.8641 20.9681 29.2763C20.8878 29.6884 20.7198 30.0785 20.4757 30.4201C20.2315 30.7617 19.9168 31.0469 19.5529 31.2564C19.0176 31.4809 18.4437 31.599 17.8633 31.6042H13.0432C12.7947 31.6042 12.6953 31.6042 12.6953 31.2825V26.3133C12.6953 26.0648 12.6953 25.9655 13.0196 25.9655H16.2235C18.2112 25.9655 19.4535 25.7928 20.4002 26.9096Z" fill="white"/>
<path d="M37.8943 24.6082C37.7612 24.2938 37.559 24.0135 37.3028 23.788C37.0465 23.5626 36.7427 23.3977 36.414 23.3057C35.7571 23.1266 35.0696 23.0887 34.397 23.1947C33.7244 23.3006 33.0819 23.5479 32.5118 23.9203C31.9433 24.4937 31.5762 25.2362 31.4657 26.0362C31.4657 26.316 31.4657 26.3683 31.7978 26.3683H37.9963C38.3023 26.3683 38.3023 26.3683 38.2762 25.9838C38.2463 25.5033 38.1179 25.0345 37.8943 24.6082ZM37.8943 24.6082C37.7612 24.2938 37.5564 24.0135 37.3001 23.788C37.0439 23.5626 36.7427 23.3977 36.414 23.3057C35.7571 23.1266 35.067 23.0887 34.3944 23.1947C33.7218 23.3006 33.0819 23.5479 32.5118 23.9203C31.9433 24.4937 31.5735 25.2362 31.4631 26.0362C31.4631 26.316 31.4631 26.3683 31.7952 26.3683H37.9963C38.3023 26.3683 38.3023 26.3683 38.2762 25.9838C38.2463 25.5033 38.1127 25.0345 37.8891 24.6082M40.8 0H10.2C7.49479 0 4.90038 1.07464 2.98751 2.98751C1.07464 4.90038 0 7.49479 0 10.2V40.8C0 43.5052 1.07464 46.0996 2.98751 48.0125C4.90038 49.9254 7.49479 51 10.2 51H40.8C43.5052 51 46.0996 49.9254 48.0125 48.0125C49.9254 46.0996 51 43.5052 51 40.8V10.2C51 7.49479 49.9254 4.90038 48.0125 2.98751C46.0996 1.07464 43.5052 0 40.8 0ZM30.804 16.2415C30.804 16.0402 30.804 15.9617 31.0342 15.9617H39.2962V18.1063C39.2962 18.1063 39.304 18.258 39.168 18.258H31.1623C30.804 18.258 30.804 18.258 30.804 17.9023V16.2415ZM23.154 34.986C20.0155 36.6938 14.7403 36.006 8.49215 36.006V14.8658H18.462C21.012 14.8658 24.0458 15.504 24.8618 18.2057C25.2856 19.3857 25.2598 20.6804 24.7894 21.8426C24.319 23.0048 23.437 23.953 22.3118 24.5062C23.349 24.89 24.2545 25.5628 24.9211 26.4452C25.5878 27.3275 25.9877 28.3824 26.0735 29.485C26.1594 30.5875 25.9276 31.6915 25.4055 32.6664C24.8835 33.6413 24.0931 34.4463 23.1278 34.986H23.154ZM42.1522 28.968H31.9522C31.6723 28.968 31.416 29.1197 31.4657 29.478C31.7717 30.9818 32.4595 32.5642 34.0183 32.7943C34.8414 33.0379 35.7223 32.9995 36.5212 32.6854C37.32 32.3712 37.9911 31.7993 38.4279 31.0603C38.4279 31.0603 38.556 30.906 38.6318 30.906H41.9482C41.9482 30.906 42.1522 30.906 42.0998 31.0838C41.7525 32.0753 41.2347 32.9984 40.5698 33.8117C39.6833 34.6578 38.6137 35.2884 37.4441 35.6544C36.2745 36.0205 35.0363 36.1122 33.8255 35.9225C32.6148 35.7328 31.464 35.2668 30.4624 34.5606C29.4608 33.8543 28.6353 32.9269 28.05 31.8502C27.6883 31.1326 27.4638 30.3538 27.3883 29.5538C26.9334 27.5442 27.2811 25.4363 28.3573 23.6791C29.4335 21.922 31.1531 20.6544 33.15 20.1463C38.9378 18.8962 42.6098 22.8742 42.6098 28.4842C42.6184 28.5497 42.6118 28.6164 42.5905 28.679C42.5692 28.7416 42.5339 28.7985 42.4871 28.8452C42.4403 28.892 42.3835 28.9274 42.3208 28.9487C42.2582 28.97 42.1916 28.9766 42.126 28.968H42.1522ZM36.4402 23.3057C35.7833 23.1271 35.0961 23.0897 34.4237 23.1958C33.7515 23.3005 33.15 23.4286 32.538 23.9203C31.926 24.4094 31.6017 25.2358 31.4918 26.0362C31.4918 26.316 31.4918 26.3683 31.824 26.3683H37.9963C38.3023 26.3683 38.3023 26.3683 38.2762 25.9838C38.2463 25.5033 38.1179 25.0345 37.8943 24.6082C37.7612 24.2938 37.559 24.0135 37.3028 23.788C37.0465 23.5626 36.7427 23.3977 36.414 23.3057H36.4402Z" fill="white"/>
</svg>
