<svg width="51" height="51" viewBox="0 0 51 51" fill="none" xmlns="http://www.w3.org/2000/svg">
<path d="M25.5 0C11.4125 0 0 11.4141 0 25.5C0 39.5859 11.4141 51 25.5 51C39.5875 51 51 39.5859 51 25.5C51 11.4141 39.5859 0 25.5 0ZM38.0246 17.47L33.8393 37.1922C33.53 38.5906 32.6976 38.9295 31.5361 38.2714L25.1611 33.5728L22.0863 36.5341C21.7474 36.873 21.4595 37.1609 20.8014 37.1609L21.2538 30.6724L33.0677 19.9986C33.5827 19.5462 32.9542 19.2895 32.2748 19.7419L17.674 28.9335L11.3812 26.9691C10.0141 26.5381 9.98284 25.602 11.6691 24.9439L36.2544 15.4629C37.3962 15.0516 38.3931 15.7409 38.023 17.4683L38.0246 17.47Z" fill="white"/>
</svg>
